<svg xmlns="http://www.w3.org/2000/svg" class="vkc" viewBox="0 0 760 1552" width="100%" role="img" aria-labelledby="vkc-t vkc-d" preserveAspectRatio="xMidYMid meet"><title id="vkc-t">The cascade around the graph: InputLayer is the hub</title><desc id="vkc-d">InputLayer sits in the centre. The pipeline head (mic, VAD, streaming STT, barge-in stage, intent stage with its write gate) and the observation adapters and watchdog write facts into it as guarded programs. Rules derive claims, speech rows and work rows; standing queries push them out as inserted and retracted deltas: speech deltas to the agenda of the active speech loop (agenda, realizer, streaming TTS, pump), work deltas to a separate executor process that claims each row under a guard, runs the items in parallel against the carrier API and the order system, and writes outcomes and observations back as facts. The pump writes playback receipts. The data lane and the system lane (Interrupt) continue from the pipeline head into the speech loop beside the hub.</desc><style>
  .vkc { --fb-fg:#e9ecf3; --fb-muted:#a3abbc; --fb-line:#3a4050; --fb-card:#1b1e26; --fb-engine:#3fc8db; --fb-model:#a797ff; --fb-app:#b3bbcc; --fb-ext:#e3ac4f; --fb-ctl:#ff7f5e; --fb-ok:#62d48f; }
  @media (prefers-color-scheme: light) { .vkc { --fb-fg:#1a1d26; --fb-muted:#5c6475; --fb-line:#cfd4df; --fb-card:#f7f8fb; --fb-engine:#0b8fa3; --fb-model:#5d49e0; --fb-app:#5a6479; --fb-ext:#a86d12; --fb-ctl:#cf4a30; --fb-ok:#23924f; } }
  .vkc text { font-family: ui-sans-serif, system-ui, -apple-system, "Segoe UI", Roboto, Helvetica, Arial, sans-serif; fill: var(--foreground, var(--fb-fg)); }
  .vkc .muted { fill: var(--muted-foreground, var(--fb-muted)); }
  .vkc .mono { font-family: ui-monospace, SFMono-Regular, Menlo, Consolas, monospace; }
  .vkc .ttl { font-weight: 600; }
  .vkc .caps { font-weight: 700; letter-spacing: .08em; }
  .vkc .b { fill: var(--card, var(--fb-card)); stroke: var(--border, var(--fb-line)); stroke-width: 1.6; }
  .vkc .engine { stroke: var(--primary, var(--fb-engine)); }
  .vkc .model { stroke: var(--accent, var(--fb-model)); }
  .vkc .app { stroke: var(--muted-foreground, var(--fb-app)); }
  .vkc .ext { stroke: var(--warning, var(--fb-ext)); }
  .vkc .ctl { stroke: var(--destructive, var(--fb-ctl)); }
  .vkc .ok { stroke: var(--success, var(--fb-ok)); }
  .vkc .tint-engine { fill: var(--primary, var(--fb-engine)); fill-opacity: .13; }
  .vkc .tint-model { fill: var(--accent, var(--fb-model)); fill-opacity: .13; }
  .vkc .tint-ext { fill: var(--warning, var(--fb-ext)); fill-opacity: .13; }
  .vkc .tint-ctl { fill: var(--destructive, var(--fb-ctl)); fill-opacity: .12; }
  .vkc .tint-ok { fill: var(--success, var(--fb-ok)); fill-opacity: .12; }
  .vkc .hub { stroke-width: 2.6; }
  .vkc .hub-glow { fill: none; stroke: var(--primary, var(--fb-engine)); stroke-width: 14; stroke-opacity: .12; }
  .vkc .panel { fill: var(--card, var(--fb-card)); stroke: var(--border, var(--fb-line)); stroke-width: 1.2; }
  .vkc .lane { fill: none; stroke: var(--border, var(--fb-line)); stroke-width: 1.2; stroke-dasharray: 6 5; }
  .vkc .ln { fill: none; stroke: var(--muted-foreground, var(--fb-muted)); stroke-width: 2; }
  .vkc .ln.engine { stroke: var(--primary, var(--fb-engine)); } .vkc .ln.ctl { stroke: var(--destructive, var(--fb-ctl)); } .vkc .ln.ok { stroke: var(--success, var(--fb-ok)); } .vkc .ln.ext { stroke: var(--warning, var(--fb-ext)); } .vkc .ln.model { stroke: var(--accent, var(--fb-model)); }
  .vkc .dash { stroke-dasharray: 7 5; }
  .vkc .m-muted { fill: var(--muted-foreground, var(--fb-muted)); } .vkc .m-engine { fill: var(--primary, var(--fb-engine)); } .vkc .m-ctl { fill: var(--destructive, var(--fb-ctl)); } .vkc .m-ok { fill: var(--success, var(--fb-ok)); } .vkc .m-ext { fill: var(--warning, var(--fb-ext)); } .vkc .m-model { fill: var(--accent, var(--fb-model)); }
  .vkc .t-ctl { fill: var(--destructive, var(--fb-ctl)); }
</style><defs><marker id="vkc-a-muted" viewBox="0 0 10 10" refX="9" refY="5" markerWidth="6" markerHeight="6" orient="auto-start-reverse"><path d="M0,0 L10,5 L0,10 z" class="m-muted"/></marker><marker id="vkc-a-engine" viewBox="0 0 10 10" refX="9" refY="5" markerWidth="6" markerHeight="6" orient="auto-start-reverse"><path d="M0,0 L10,5 L0,10 z" class="m-engine"/></marker><marker id="vkc-a-ctl" viewBox="0 0 10 10" refX="9" refY="5" markerWidth="6" markerHeight="6" orient="auto-start-reverse"><path d="M0,0 L10,5 L0,10 z" class="m-ctl"/></marker><marker id="vkc-a-ok" viewBox="0 0 10 10" refX="9" refY="5" markerWidth="6" markerHeight="6" orient="auto-start-reverse"><path d="M0,0 L10,5 L0,10 z" class="m-ok"/></marker><marker id="vkc-a-model" viewBox="0 0 10 10" refX="9" refY="5" markerWidth="6" markerHeight="6" orient="auto-start-reverse"><path d="M0,0 L10,5 L0,10 z" class="m-model"/></marker><marker id="vkc-a-ext" viewBox="0 0 10 10" refX="9" refY="5" markerWidth="6" markerHeight="6" orient="auto-start-reverse"><path d="M0,0 L10,5 L0,10 z" class="m-ext"/></marker></defs><text x="24" y="38" font-size="22" text-anchor="start" class="ttl">The cascade around the graph</text><text x="24" y="62" font-size="14" text-anchor="start" class="muted">Standing state → speech and work: facts in as guarded programs, conclusions out as deltas.</text><rect x="60" y="86" width="300" height="460" rx="14" class="lane"/><text x="72" y="106" font-size="12" text-anchor="start" class="caps muted">CONTINUOUS INPUT</text><text x="72" y="122" font-size="12" text-anchor="start" class="muted">the pipeline head: models propose</text><rect x="85.0" y="140" width="250" height="56" rx="10" class="b app"/><text x="210.0" y="161" font-size="15" text-anchor="middle" class="ttl">Mic + resampler</text><text x="210.0" y="180" font-size="13" text-anchor="middle" class="muted">capture · 16 kHz mono</text><rect x="85.0" y="218" width="250" height="56" rx="10" class="b model"/><rect x="85.0" y="218" width="250" height="56" rx="10" class="tint-model" stroke="none"/><text x="210.0" y="239" font-size="15" text-anchor="middle" class="ttl">VAD</text><text x="210.0" y="258" font-size="13" text-anchor="middle" class="muted">speech and interruption edges</text><rect x="85.0" y="296" width="250" height="56" rx="10" class="b model"/><rect x="85.0" y="296" width="250" height="56" rx="10" class="tint-model" stroke="none"/><text x="210.0" y="317" font-size="15" text-anchor="middle" class="ttl">Streaming STT</text><text x="210.0" y="336" font-size="13" text-anchor="middle" class="muted">partials with a stable prefix</text><rect x="85.0" y="374" width="250" height="56" rx="10" class="b ctl"/><rect x="85.0" y="374" width="250" height="56" rx="10" class="tint-ctl" stroke="none"/><text x="210.0" y="395" font-size="15" text-anchor="middle" class="ttl">Barge-in stage</text><text x="210.0" y="414" font-size="13" text-anchor="middle" class="muted">speech onset → Interrupt</text><rect x="85.0" y="452" width="250" height="74" rx="10" class="b app"/><text x="210.0" y="473" font-size="15" text-anchor="middle" class="ttl">Intent stage + write gate</text><text x="210.0" y="492" font-size="13" text-anchor="middle" class="muted">intent model proposes goals</text><text x="210.0" y="509" font-size="13" text-anchor="middle" class="muted">gate: typed · scoped · ordered</text><rect x="87.0" y="460" width="6" height="58" rx="3" class="m-model"/><path d="M210.0,196 L210.0,218" class="ln muted" marker-end="url(#vkc-a-muted)"/><text x="220.0" y="211.0" font-size="12" text-anchor="start" class="muted">audio</text><path d="M210.0,274 L210.0,296" class="ln muted" marker-end="url(#vkc-a-muted)"/><text x="220.0" y="289.0" font-size="12" text-anchor="start" class="muted">audio · voice edges</text><path d="M210.0,352 L210.0,374" class="ln muted" marker-end="url(#vkc-a-muted)"/><text x="220.0" y="367.0" font-size="12" text-anchor="start" class="muted">transcripts · edges</text><path d="M210.0,430 L210.0,452" class="ln muted" marker-end="url(#vkc-a-muted)"/><text x="220.0" y="445.0" font-size="12" text-anchor="start" class="muted">final transcripts</text><rect x="400" y="86" width="336" height="378" rx="14" class="lane"/><text x="724" y="106" font-size="12" text-anchor="end" class="caps muted">EXTERNAL WORLD</text><text x="724" y="122" font-size="12" text-anchor="end" class="muted">your systems, observed by adapters</text><rect x="441" y="140" width="250" height="74" rx="10" class="b ext"/><rect x="441" y="140" width="250" height="74" rx="10" class="tint-ext" stroke="none"/><text x="566.0" y="161" font-size="15" text-anchor="middle" class="ttl">External systems</text><text x="566.0" y="180" font-size="13" text-anchor="middle" class="muted">carrier · orders · CRM</text><text x="566.0" y="197" font-size="13" text-anchor="middle" class="muted">webhooks · CDC · polling</text><rect x="441" y="254" width="250" height="74" rx="10" class="b app"/><text x="566.0" y="275" font-size="15" text-anchor="middle" class="ttl">Observation adapters</text><text x="566.0" y="294" font-size="12.5" text-anchor="middle" class="muted">source id · src_rev · observed</text><text x="566.0" y="311" font-size="12.5" text-anchor="middle" class="muted">exact replacement, cursor guards</text><rect x="521" y="368" width="170" height="74" rx="10" class="b app"/><text x="606.0" y="389" font-size="15" text-anchor="middle" class="ttl">Watchdog</text><text x="606.0" y="408" font-size="12.5" text-anchor="middle" class="muted">flips source_health</text><text x="606.0" y="425" font-size="12.5" text-anchor="middle" class="muted">by the engine clock</text><path d="M566,214 L566,254" class="ln ext" marker-end="url(#vkc-a-ext)"/><text x="574" y="238.0" font-size="12" text-anchor="start" class="muted">change events</text><path d="M181,526 L181,606" class="ln engine" marker-end="url(#vkc-a-engine)"/><text x="172" y="566" font-size="12" text-anchor="end" class="muted">goals · consents ↓</text><text x="172" y="580" font-size="12" text-anchor="end" class="muted">guarded programs</text><path d="M476,328 L476,606" class="ln engine" marker-end="url(#vkc-a-engine)"/><text x="468" y="566" font-size="12" text-anchor="end" class="muted">world facts ↓</text><text x="468" y="580" font-size="12" text-anchor="end" class="muted">replacement programs</text><path d="M606,442 L606,606" class="ln engine" marker-end="url(#vkc-a-engine)"/><text x="614" y="566" font-size="12" text-anchor="start" class="muted">source_health flips ↓</text><text x="614" y="580" font-size="12" text-anchor="start" class="muted">compare-and-set</text><rect x="142" y="606" width="496" height="216" rx="16" class="hub-glow"/><rect x="142" y="606" width="496" height="216" rx="12" class="b engine hub"/><rect x="142" y="606" width="496" height="216" rx="12" class="tint-engine" stroke="none"/><text x="390.0" y="638" font-size="22" text-anchor="middle" class="ttl">InputLayer</text><text x="390.0" y="658" font-size="13" text-anchor="middle" class="muted">live knowledge graph · one graph per tenant · one revision per change</text><rect x="151.0" y="672" width="154" height="94" rx="8" class="panel"/><text x="228.0" y="691" font-size="12" text-anchor="middle" class="ttl">Accepted facts</text><text x="228.0" y="711" font-size="12" text-anchor="middle" class="muted">world · session</text><text x="228.0" y="727" font-size="12" text-anchor="middle" class="muted">tool policy · attempts</text><text x="228.0" y="743" font-size="12" text-anchor="middle" class="muted">playbacks · leases</text><rect x="313.0" y="672" width="154" height="94" rx="8" class="panel"/><text x="390.0" y="691" font-size="12" text-anchor="middle" class="ttl">Rules + guardrails</text><text x="390.0" y="711" font-size="12" text-anchor="middle" class="muted">claim, speech, work</text><text x="390.0" y="727" font-size="12" text-anchor="middle" class="muted">policy → eligible</text><text x="390.0" y="743" font-size="12" text-anchor="middle" class="muted">deny by default</text><rect x="475.0" y="672" width="154" height="94" rx="8" class="panel"/><text x="552.0" y="691" font-size="12" text-anchor="middle" class="ttl">Standing results</text><text x="552.0" y="711" font-size="12" text-anchor="middle" class="muted">speech(…) → agenda</text><text x="552.0" y="727" font-size="12" text-anchor="middle" class="muted">work(…) → executors</text><text x="552.0" y="743" font-size="12" text-anchor="middle" class="muted">level, not events</text><text x="390.0" y="790" font-size="12" text-anchor="middle" class="muted">every write: one guarded program, one revision</text><text x="390.0" y="806" font-size="12" text-anchor="middle" class="muted">every push: inserted / retracted rows · .why on every decision</text><path d="M85.0,489 L42,489 L42,978 L85.0,978" class="ln muted" marker-end="url(#vkc-a-muted)"/><path d="M85.0,402 L28,402 L28,992 L74,992 L74,1331" class="ln ctl"/><text x="50" y="648" font-size="11.5" text-anchor="start" class="t-ctl ttl">system lane</text><text x="50" y="662" font-size="11.5" text-anchor="start" class="muted">Interrupt ↓</text><text x="50" y="676" font-size="11.5" text-anchor="start" class="muted">from barge-in</text><text x="50" y="690" font-size="11.5" text-anchor="start" class="muted">and the agenda</text><text x="50" y="722" font-size="11.5" text-anchor="start" class="ttl">data lane</text><text x="50" y="736" font-size="11.5" text-anchor="start" class="muted">voice edges ↓</text><text x="50" y="750" font-size="11.5" text-anchor="start" class="muted">transcripts</text><rect x="60" y="896" width="300" height="500" rx="14" class="lane"/><text x="72" y="916" font-size="12" text-anchor="start" class="caps muted">ACTIVE SPEECH LOOP</text><text x="72" y="932" font-size="12" text-anchor="start" class="muted">works while idle or speaking</text><rect x="85.0" y="952" width="250" height="92" rx="10" class="b app"/><text x="210.0" y="973" font-size="15" text-anchor="middle" class="ttl">Agenda (active stage)</text><text x="210.0" y="992" font-size="12.5" text-anchor="middle" class="muted">engine channel: snapshot, deltas</text><text x="210.0" y="1009" font-size="12.5" text-anchor="middle" class="muted">view · floor · select · reserve</text><text x="210.0" y="1026" font-size="12.5" text-anchor="middle" class="muted">changed → Interrupt + correction</text><rect x="85.0" y="1084" width="250" height="74" rx="10" class="b app"/><text x="210.0" y="1105" font-size="15" text-anchor="middle" class="ttl">Realizer</text><text x="210.0" y="1124" font-size="12.5" text-anchor="middle" class="muted">templates for claims · sanitizer</text><text x="210.0" y="1141" font-size="12.5" text-anchor="middle" class="muted">LLM for open questions</text><rect x="87.0" y="1092" width="6" height="58" rx="3" class="m-model"/><rect x="85.0" y="1198" width="250" height="56" rx="10" class="b model"/><rect x="85.0" y="1198" width="250" height="56" rx="10" class="tint-model" stroke="none"/><text x="210.0" y="1219" font-size="15" text-anchor="middle" class="ttl">Streaming TTS</text><text x="210.0" y="1238" font-size="13" text-anchor="middle" class="muted">phrase → audio chunks</text><rect x="85.0" y="1294" width="250" height="74" rx="10" class="b app"/><text x="210.0" y="1315" font-size="15" text-anchor="middle" class="ttl">Pump (tail) → loudspeaker</text><text x="210.0" y="1334" font-size="12.5" text-anchor="middle" class="muted">last check per chunk · ring</text><text x="210.0" y="1351" font-size="12.5" text-anchor="middle" class="muted">receipts: played, not generated</text><path d="M210.0,1044 L210.0,1084" class="ln muted" marker-end="url(#vkc-a-muted)"/><text x="220.0" y="1068.0" font-size="12" text-anchor="start" class="muted">claim token</text><path d="M210.0,1158 L210.0,1198" class="ln muted" marker-end="url(#vkc-a-muted)"/><text x="220.0" y="1175.0" font-size="12" text-anchor="start" class="muted">phrase +</text><text x="220.0" y="1189.0" font-size="12" text-anchor="start" class="muted">claim markers</text><path d="M210.0,1254 L210.0,1294" class="ln muted" marker-end="url(#vkc-a-muted)"/><text x="220.0" y="1278.0" font-size="12" text-anchor="start" class="muted">audio chunks</text><path d="M74,1008 L85.0,1008" class="ln ctl" marker-end="url(#vkc-a-ctl)"/><path d="M74,1121 L85.0,1121" class="ln ctl" marker-end="url(#vkc-a-ctl)"/><path d="M74,1226 L85.0,1226" class="ln ctl" marker-end="url(#vkc-a-ctl)"/><path d="M74,1331 L85.0,1331" class="ln ctl" marker-end="url(#vkc-a-ctl)"/><path d="M255,822 L255,952" class="ln engine dash" marker-end="url(#vkc-a-engine)"/><path d="M300,952 L300,822" class="ln engine" marker-end="url(#vkc-a-engine)"/><path d="M335.0,1331 L350,1331 L350,940 L300,940" class="ln engine"/><text x="247" y="842" font-size="12" text-anchor="end" class="muted">speech deltas ↓</text><text x="308" y="862" font-size="12" text-anchor="start" class="muted">reservation · receipts ↑</text><rect x="400" y="896" width="336" height="500" rx="14" class="lane"/><text x="724" y="916" font-size="12" text-anchor="end" class="caps muted">BACKGROUND WORK</text><text x="724" y="932" font-size="12" text-anchor="end" class="muted">multitasking dispatch</text><rect x="418" y="952" width="300" height="92" rx="10" class="b app"/><text x="568.0" y="973" font-size="15" text-anchor="middle" class="ttl">Executor (separate process)</text><text x="568.0" y="992" font-size="12.5" text-anchor="middle" class="muted">subscribes once: work ⋈ lease_owner</text><text x="568.0" y="1009" font-size="12.5" text-anchor="middle" class="muted">claims rows under a guard, in parallel</text><text x="568.0" y="1026" font-size="12.5" text-anchor="middle" class="muted">in flight now: att-9f3 · att-b1 · …</text><rect x="414" y="1128" width="150" height="74" rx="10" class="b ext"/><rect x="414" y="1128" width="150" height="74" rx="10" class="tint-ext" stroke="none"/><text x="489.0" y="1149" font-size="15" text-anchor="middle" class="ttl">Carrier API</text><text x="489.0" y="1168" font-size="12.5" text-anchor="middle" class="muted">carrier_check</text><text x="489.0" y="1185" font-size="12.5" text-anchor="middle" class="muted">policy: auto</text><rect x="574" y="1128" width="150" height="74" rx="10" class="b ext"/><rect x="574" y="1128" width="150" height="74" rx="10" class="tint-ext" stroke="none"/><text x="649.0" y="1149" font-size="15" text-anchor="middle" class="ttl">Order system</text><text x="649.0" y="1168" font-size="12.5" text-anchor="middle" class="muted">reschedule_delivery</text><text x="649.0" y="1185" font-size="12.5" text-anchor="middle" class="muted">policy: confirm</text><path d="M430,1044 L430,1128" class="ln ext" marker-end="url(#vkc-a-ext)"/><path d="M454,1128 L454,1044" class="ln ok" marker-end="url(#vkc-a-ok)"/><path d="M708,1044 L708,1128" class="ln ext" marker-end="url(#vkc-a-ext)"/><path d="M684,1128 L684,1044" class="ln ok" marker-end="url(#vkc-a-ok)"/><text x="569" y="1066" font-size="11.5" text-anchor="middle" class="muted">↓ Create · Cancel · lookup</text><text x="569" y="1080" font-size="11.5" text-anchor="middle" class="muted">idempotency key · epoch fence</text><text x="569" y="1094" font-size="11.5" text-anchor="middle" class="muted">↑ Accepted · result · failure</text><text x="418" y="1236" font-size="12.5" text-anchor="start" class="muted">No audio output. Every item is a row of the</text><text x="418" y="1253" font-size="12.5" text-anchor="start" class="muted">standing result: entering starts it, leaving</text><text x="418" y="1270" font-size="12.5" text-anchor="start" class="muted">cancels it. Items run in parallel under per-tool</text><text x="418" y="1287" font-size="12.5" text-anchor="start" class="muted">limits. Outcomes return as facts, so the speech</text><text x="418" y="1304" font-size="12.5" text-anchor="start" class="muted">lane keeps talking and corrects itself meanwhile.</text><path d="M470,822 L470,952" class="ln engine dash" marker-end="url(#vkc-a-engine)"/><path d="M520,952 L520,822" class="ln engine" marker-end="url(#vkc-a-engine)"/><text x="462" y="842" font-size="12" text-anchor="end" class="muted">work deltas ↓</text><text x="462" y="882" font-size="12" text-anchor="end" class="muted">one row per item</text><text x="528" y="862" font-size="12" text-anchor="start" class="muted">claim · outcome · observation ↑</text><text x="24" y="1430" font-size="13" text-anchor="start" class="muted ttl">Components</text><rect x="24" y="1443" width="15" height="15" rx="3" class="b model"/><rect x="24" y="1443" width="15" height="15" rx="3" class="tint-model" stroke="none"/><text x="45" y="1455" font-size="13" text-anchor="start" class="muted">model</text><rect x="101.0" y="1443" width="15" height="15" rx="3" class="b engine"/><rect x="101.0" y="1443" width="15" height="15" rx="3" class="tint-engine" stroke="none"/><text x="122.0" y="1455" font-size="13" text-anchor="start" class="muted">InputLayer</text><rect x="214.0" y="1443" width="15" height="15" rx="3" class="b app"/><text x="235.0" y="1455" font-size="13" text-anchor="start" class="muted">application</text><rect x="334.2" y="1443" width="15" height="15" rx="3" class="b ext"/><rect x="334.2" y="1443" width="15" height="15" rx="3" class="tint-ext" stroke="none"/><text x="355.2" y="1455" font-size="13" text-anchor="start" class="muted">external</text><rect x="432.79999999999995" y="1443" width="15" height="15" rx="3" class="b ctl"/><rect x="432.79999999999995" y="1443" width="15" height="15" rx="3" class="tint-ctl" stroke="none"/><text x="453.79999999999995" y="1455" font-size="13" text-anchor="start" class="muted">control</text><rect x="524.1999999999999" y="1443" width="6" height="15" rx="3" class="m-model"/><text x="538.1999999999999" y="1455" font-size="13" text-anchor="start" class="muted">model inside an application stage</text><text x="24" y="1478" font-size="13" text-anchor="start" class="muted ttl">Edges</text><path d="M24,1498 L54,1498" class="ln muted" marker-end="url(#vkc-a-muted)"/><text x="62" y="1503" font-size="13" text-anchor="start" class="muted">data lane</text><path d="M143.0,1498 L173.0,1498" class="ln ctl" marker-end="url(#vkc-a-ctl)"/><text x="181.0" y="1503" font-size="13" text-anchor="start" class="muted">system lane</text><path d="M276.0,1498 L306.0,1498" class="ln engine dash" marker-end="url(#vkc-a-engine)"/><text x="314.0" y="1503" font-size="13" text-anchor="start" class="muted">engine delta</text><path d="M416.0,1498 L446.0,1498" class="ln engine" marker-end="url(#vkc-a-engine)"/><text x="454.0" y="1503" font-size="13" text-anchor="start" class="muted">engine program</text><path d="M570.0,1498 L600.0,1498" class="ln ext" marker-end="url(#vkc-a-ext)"/><text x="608.0" y="1503" font-size="13" text-anchor="start" class="muted">external call</text><path d="M24,1526 L54,1526" class="ln ok" marker-end="url(#vkc-a-ok)"/><text x="62" y="1531" font-size="13" text-anchor="start" class="muted">result / event</text></svg>
